<?xml version="1.0" encoding="UTF-8" standalone="no"?><svg xmlns="http://www.w3.org/2000/svg" xmlns:xlink="http://www.w3.org/1999/xlink" contentScriptType="application/ecmascript" contentStyleType="text/css" height="719px" preserveAspectRatio="none" style="width:1149px;height:719px;background:#FFFFFF;" version="1.1" viewBox="0 0 1149 719" width="1149px" zoomAndPan="magnify"><defs/><g><text fill="#000000" font-family="sans-serif" font-size="15" lengthAdjust="spacingAndGlyphs" textLength="323" x="419" y="13.9233">Diagrama de Componentes — Sistema SGR</text><!--cluster Cliente--><polygon fill="#FFFFFF" points="47,41.4609,104,41.4609,111,62.5938,199,62.5938,199,126.4609,47,126.4609,47,41.4609" style="stroke: #64748B; stroke-width: 1.5;"/><line style="stroke: #64748B; stroke-width: 1.5;" x1="47" x2="111" y1="62.5938" y2="62.5938"/><text fill="#14532D" font-family="sans-serif" font-size="13" font-weight="bold" lengthAdjust="spacingAndGlyphs" textLength="51" x="51" y="55.5278">Cliente</text><!--cluster Backend--><polygon fill="#FFFFFF" points="22,190.4609,92,190.4609,99,211.5938,763,211.5938,763,595.9609,22,595.9609,22,190.4609" style="stroke: #64748B; stroke-width: 1.5;"/><line style="stroke: #64748B; stroke-width: 1.5;" x1="22" x2="99" y1="211.5938" y2="211.5938"/><text fill="#14532D" font-family="sans-serif" font-size="13" font-weight="bold" lengthAdjust="spacingAndGlyphs" textLength="64" x="26" y="204.5278">Backend</text><!--cluster Patrones de Diseño (sección 3.1)--><polygon fill="#FFFFFF" points="227,232.4609,478,232.4609,485,253.5938,739,253.5938,739,317.4609,227,317.4609,227,232.4609" style="stroke: #64748B; stroke-width: 1.5;"/><line style="stroke: #64748B; stroke-width: 1.5;" x1="227" x2="485" y1="253.5938" y2="253.5938"/><text fill="#14532D" font-family="sans-serif" font-size="13" font-weight="bold" lengthAdjust="spacingAndGlyphs" textLength="245" x="231" y="246.5278">Patrones de Diseño (sección 3.1)</text><!--cluster Datos y Archivos--><polygon fill="#FFFFFF" points="787,494.4609,916,494.4609,923,515.5938,1127,515.5938,1127,612.4609,787,612.4609,787,494.4609" style="stroke: #64748B; stroke-width: 1.5;"/><line style="stroke: #64748B; stroke-width: 1.5;" x1="787" x2="923" y1="515.5938" y2="515.5938"/><text fill="#14532D" font-family="sans-serif" font-size="13" font-weight="bold" lengthAdjust="spacingAndGlyphs" textLength="123" x="791" y="508.5278">Datos y Archivos</text><!--entity WEB--><rect fill="#EFF6FF" height="35.1328" style="stroke: #2563EB; stroke-width: 1.5;" width="120" x="63" y="75.4609"/><rect fill="#EFF6FF" height="5" style="stroke: #2563EB; stroke-width: 1.5;" width="10" x="58" y="80.4609"/><rect fill="#EFF6FF" height="5" style="stroke: #2563EB; stroke-width: 1.5;" width="10" x="58" y="100.5938"/><text fill="#1E3A5F" font-family="sans-serif" font-size="13" lengthAdjust="spacingAndGlyphs" textLength="100" x="73" y="97.5278">Web responsiva</text><!--entity API--><rect fill="#EFF6FF" height="35.1328" style="stroke: #2563EB; stroke-width: 1.5;" width="170" x="38" y="266.4609"/><rect fill="#EFF6FF" height="5" style="stroke: #2563EB; stroke-width: 1.5;" width="10" x="33" y="271.4609"/><rect fill="#EFF6FF" height="5" style="stroke: #2563EB; stroke-width: 1.5;" width="10" x="33" y="291.5938"/><text fill="#1E3A5F" font-family="sans-serif" font-size="13" lengthAdjust="spacingAndGlyphs" textLength="150" x="48" y="288.5278">Controladores API REST</text><!--entity SERV--><rect fill="#EFF6FF" height="35.1328" style="stroke: #2563EB; stroke-width: 1.5;" width="189" x="344.5" y="380.9609"/><rect fill="#EFF6FF" height="5" style="stroke: #2563EB; stroke-width: 1.5;" width="10" x="339.5" y="385.9609"/><rect fill="#EFF6FF" height="5" style="stroke: #2563EB; stroke-width: 1.5;" width="10" x="339.5" y="406.0938"/><text fill="#1E3A5F" font-family="sans-serif" font-size="13" lengthAdjust="spacingAndGlyphs" textLength="169" x="354.5" y="403.0278">Servicios de Casos de Uso</text><!--entity AUTH--><rect fill="#EFF6FF" height="35.1328" style="stroke: #2563EB; stroke-width: 1.5;" width="177" x="568.5" y="380.9609"/><rect fill="#EFF6FF" height="5" style="stroke: #2563EB; stroke-width: 1.5;" width="10" x="563.5" y="385.9609"/><rect fill="#EFF6FF" height="5" style="stroke: #2563EB; stroke-width: 1.5;" width="10" x="563.5" y="406.0938"/><text fill="#1E3A5F" font-family="sans-serif" font-size="13" lengthAdjust="spacingAndGlyphs" textLength="157" x="578.5" y="403.0278">Módulo de Autenticación</text><!--entity DOM--><rect fill="#EFF6FF" height="35.1328" style="stroke: #2563EB; stroke-width: 1.5;" width="141" x="368.5" y="544.9609"/><rect fill="#EFF6FF" height="5" style="stroke: #2563EB; stroke-width: 1.5;" width="10" x="363.5" y="549.9609"/><rect fill="#EFF6FF" height="5" style="stroke: #2563EB; stroke-width: 1.5;" width="10" x="363.5" y="570.0938"/><text fill="#1E3A5F" font-family="sans-serif" font-size="13" lengthAdjust="spacingAndGlyphs" textLength="121" x="378.5" y="567.0278">Núcleo de Dominio</text><!--entity SINGLETON--><rect fill="#EFF6FF" height="35.1328" style="stroke: #2563EB; stroke-width: 1.5;" width="160" x="563" y="266.4609"/><rect fill="#EFF6FF" height="5" style="stroke: #2563EB; stroke-width: 1.5;" width="10" x="558" y="271.4609"/><rect fill="#EFF6FF" height="5" style="stroke: #2563EB; stroke-width: 1.5;" width="10" x="558" y="291.5938"/><text fill="#1E3A5F" font-family="sans-serif" font-size="13" lengthAdjust="spacingAndGlyphs" textLength="140" x="573" y="288.5278">ConfiguracionSistema</text><!--entity FACTORY--><rect fill="#EFF6FF" height="35.1328" style="stroke: #2563EB; stroke-width: 1.5;" width="116" x="412" y="266.4609"/><rect fill="#EFF6FF" height="5" style="stroke: #2563EB; stroke-width: 1.5;" width="10" x="407" y="271.4609"/><rect fill="#EFF6FF" height="5" style="stroke: #2563EB; stroke-width: 1.5;" width="10" x="407" y="291.5938"/><text fill="#1E3A5F" font-family="sans-serif" font-size="13" lengthAdjust="spacingAndGlyphs" textLength="96" x="422" y="288.5278">InformeFactory</text><!--entity OBSERVER--><rect fill="#EFF6FF" height="35.1328" style="stroke: #2563EB; stroke-width: 1.5;" width="133" x="243.5" y="266.4609"/><rect fill="#EFF6FF" height="5" style="stroke: #2563EB; stroke-width: 1.5;" width="10" x="238.5" y="271.4609"/><rect fill="#EFF6FF" height="5" style="stroke: #2563EB; stroke-width: 1.5;" width="10" x="238.5" y="291.5938"/><text fill="#1E3A5F" font-family="sans-serif" font-size="13" lengthAdjust="spacingAndGlyphs" textLength="113" x="253.5" y="288.5278">GeneradorAlertas</text><!--entity BD--><path d="M997,542.9609 C997,532.9609 1054,532.9609 1054,532.9609 C1054,532.9609 1111,532.9609 1111,542.9609 L1111,582.2266 C1111,592.2266 1054,592.2266 1054,592.2266 C1054,592.2266 997,592.2266 997,582.2266 L997,542.9609 " fill="#F0FDF4" style="stroke: #16A34A; stroke-width: 1.5;"/><path d="M997,542.9609 C997,552.9609 1054,552.9609 1054,552.9609 C1054,552.9609 1111,552.9609 1111,542.9609 " fill="none" style="stroke: #16A34A; stroke-width: 1.5;"/><text fill="#14532D" font-family="sans-serif" font-size="13" lengthAdjust="spacingAndGlyphs" textLength="94" x="1007" y="569.0278">Base de Datos</text><text fill="#14532D" font-family="sans-serif" font-size="13" lengthAdjust="spacingAndGlyphs" textLength="64" x="1007" y="584.1606">Relacional</text><!--entity FILES--><polygon fill="#F0FDF4" points="802.5,528.4609,848.5,528.4609,855.5,549.4609,961.5,549.4609,961.5,596.8594,802.5,596.8594,802.5,528.4609" style="stroke: #16A34A; stroke-width: 1.5;"/><line style="stroke: #16A34A; stroke-width: 1.5;" x1="802.5" x2="855.5" y1="549.4609" y2="549.4609"/><text fill="#14532D" font-family="sans-serif" font-size="13" lengthAdjust="spacingAndGlyphs" textLength="129" x="812.5" y="568.5278">Almacenamiento de</text><text fill="#14532D" font-family="sans-serif" font-size="13" lengthAdjust="spacingAndGlyphs" textLength="67" x="812.5" y="583.6606">Evidencias</text><path d="M347.5,659.4609 L347.5,707.875 A0,0 0 0 0 347.5,707.875 L530.5,707.875 A0,0 0 0 0 530.5,707.875 L530.5,669.4609 L520.5,659.4609 L443,659.4609 L439,580.0109 L435,659.4609 L347.5,659.4609 A0,0 0 0 0 347.5,659.4609 " fill="#FEF9C3" style="stroke: #CA8A04; stroke-width: 1.0;"/><path d="M520.5,659.4609 L520.5,669.4609 L530.5,669.4609 L520.5,659.4609 " fill="#FEF9C3" style="stroke: #CA8A04; stroke-width: 1.0;"/><text fill="#000000" font-family="sans-serif" font-size="11" lengthAdjust="spacingAndGlyphs" textLength="150" x="353.5" y="674.6714">Entidades de la sección 3:</text><text fill="#000000" font-family="sans-serif" font-size="11" lengthAdjust="spacingAndGlyphs" textLength="162" x="353.5" y="687.4761">Funcionario, Actividad, Meta,</text><text fill="#000000" font-family="sans-serif" font-size="11" lengthAdjust="spacingAndGlyphs" textLength="162" x="353.5" y="700.2808">Indicador, Compromiso, etc.</text><path d="M780.5,380.4609 L780.5,416.0703 L1059.5,416.0703 L1059.5,390.4609 L1049.5,380.4609 L780.5,380.4609 " fill="#FEF9C3" style="stroke: #CA8A04; stroke-width: 1.0;"/><path d="M1049.5,380.4609 L1049.5,390.4609 L1059.5,390.4609 L1049.5,380.4609 " fill="#FEF9C3" style="stroke: #CA8A04; stroke-width: 1.0;"/><text fill="#000000" font-family="sans-serif" font-size="11" lengthAdjust="spacingAndGlyphs" textLength="191" x="786.5" y="395.6714">Los 3 patrones de la sección 3.1,</text><text fill="#000000" font-family="sans-serif" font-size="11" lengthAdjust="spacingAndGlyphs" textLength="258" x="786.5" y="408.4761">invocados desde Servicios de Casos de Uso.</text><!--link WEB to API--><path d="M123,110.7309 C123,144.9209 123,222.6409 123,260.8809 " fill="none" id="WEB-API" style="stroke: #475569; stroke-width: 1.0;"/><polygon fill="#475569" points="123,266.2309,127,257.2309,123,261.2309,119,257.2309,123,266.2309" style="stroke: #475569; stroke-width: 1.0;"/><text fill="#000000" font-family="sans-serif" font-size="13" lengthAdjust="spacingAndGlyphs" textLength="85" x="144.5" y="155.5278">HTTPS / JSON</text><text fill="#000000" font-family="sans-serif" font-size="13" lengthAdjust="spacingAndGlyphs" textLength="126" x="124" y="170.6606">(RNF-002, RNF-006)</text><!--link API to SERV--><path d="M164.34,301.5409 C183.35,309.0409 206.25,317.9009 227,325.4609 C279.75,344.6809 340.46,365.1309 383.36,379.3009 " fill="none" id="API-SERV" style="stroke: #475569; stroke-width: 1.0;"/><polygon fill="#475569" points="388.24,380.9209,380.9548,374.2933,383.4937,379.3484,378.4387,381.8873,388.24,380.9209" style="stroke: #475569; stroke-width: 1.0;"/><text fill="#000000" font-family="sans-serif" font-size="13" lengthAdjust="spacingAndGlyphs" textLength="41" x="297" y="346.5278">invoca</text><!--link API to AUTH--><path d="M157.78,301.5809 C177.6,310.2609 203.17,320.1609 227,325.4609 C279.18,337.0709 294.04,326.2609 347,333.4609 C429.36,344.6509 522.61,364.9609 585.13,379.7009 " fill="none" id="API-AUTH" style="stroke: #475569; stroke-width: 1.0;"/><polygon fill="#475569" points="590.33,380.9309,582.4981,374.9593,585.4654,379.7754,580.6492,382.7427,590.33,380.9309" style="stroke: #475569; stroke-width: 1.0;"/><text fill="#000000" font-family="sans-serif" font-size="13" lengthAdjust="spacingAndGlyphs" textLength="60" x="442" y="346.5278">autentica</text><!--link SERV to DOM--><path d="M439,416.1909 C439,445.6509 439,506.7909 439,539.5709 " fill="none" id="SERV-DOM" style="stroke: #475569; stroke-width: 1.0;"/><polygon fill="#475569" points="439,544.5809,443,535.5809,439,539.5809,435,535.5809,439,544.5809" style="stroke: #475569; stroke-width: 1.0;"/><text fill="#000000" font-family="sans-serif" font-size="13" lengthAdjust="spacingAndGlyphs" textLength="80" x="440" y="459.5278">aplica reglas</text><text fill="#000000" font-family="sans-serif" font-size="13" lengthAdjust="spacingAndGlyphs" textLength="62" x="449" y="474.6606">y cálculos</text><!--link SERV to BD--><path d="M533.68,414.0909 C539.54,414.9209 545.35,415.7109 551,416.4609 C668.95,432.0609 707.41,400.1609 817,446.4609 C837.65,455.1909 835.15,470.2309 856,478.4609 C906.95,498.5809 929.1,463.8609 979,486.4609 C999.41,495.7009 1017.37,513.1009 1030.59,528.8209 " fill="none" id="SERV-BD" style="stroke: #475569; stroke-width: 1.0;"/><polygon fill="#475569" points="1033.84,532.7709,1031.1928,523.2845,1030.656,528.9158,1025.0246,528.379,1033.84,532.7709" style="stroke: #475569; stroke-width: 1.0;"/><text fill="#000000" font-family="sans-serif" font-size="13" lengthAdjust="spacingAndGlyphs" textLength="117" x="857" y="467.0278">persistencia (SQL)</text><!--link SERV to FILES--><path d="M479.31,416.0809 C525.85,434.5009 605.11,463.5909 676,478.4609 C714,486.4309 726.23,473.9909 763,486.4609 C789.02,495.2909 815.15,510.8409 836.27,525.5009 " fill="none" id="SERV-FILES" style="stroke: #475569; stroke-width: 1.0;"/><polygon fill="#475569" points="840.43,528.4209,835.3527,519.9817,836.3345,525.5527,830.7635,526.5344,840.43,528.4209" style="stroke: #475569; stroke-width: 1.0;"/><text fill="#000000" font-family="sans-serif" font-size="13" lengthAdjust="spacingAndGlyphs" textLength="69" x="710" y="459.5278">lee/escribe</text><text fill="#000000" font-family="sans-serif" font-size="13" lengthAdjust="spacingAndGlyphs" textLength="135" x="677" y="474.6606">evidencias (RNF-017)</text><!--link AUTH to BD--><path d="M745.76,413.8509 C751.59,414.7509 757.38,415.6309 763,416.4609 C860.61,430.9409 900.27,392.6609 983,446.4609 C1012.35,465.5509 1031.61,501.4509 1042.57,528.0909 " fill="none" id="AUTH-BD" style="stroke: #475569; stroke-width: 1.0;"/><polygon fill="#475569" points="1044.52,532.9509,1044.8653,523.1081,1042.6508,528.3135,1037.4454,526.0989,1044.52,532.9509" style="stroke: #475569; stroke-width: 1.0;"/><text fill="#000000" font-family="sans-serif" font-size="13" lengthAdjust="spacingAndGlyphs" textLength="121" x="1015" y="459.5278">valida credenciales</text><text fill="#000000" font-family="sans-serif" font-size="13" lengthAdjust="spacingAndGlyphs" textLength="103" x="1024" y="474.6606">(hash, RNF-004)</text><!--link SINGLETON to GMN27--><path d="M684.11,301.5409 C707.29,310.9009 736.77,322.8109 763,333.4609 C802.14,349.3509 846.73,367.5309 878.36,380.4509 " fill="none" id="SINGLETON-GMN27" style="stroke: #475569; stroke-width: 1.0; stroke-dasharray: 7.0,7.0;"/></g></svg>