<svg xmlns="http://www.w3.org/2000/svg" xmlns:xlink="http://www.w3.org/1999/xlink" version="1.1" data-diagram-type="DESCRIPTION" style="width:491px;height:1052px;background:#FFFFFF;" width="491px" height="1052px" viewBox="0 0 491 1052" zoomAndPan="magnify" preserveAspectRatio="none" contentStyleType="text/css"><?plantuml 1.2026.8?><defs/><g font-family="sans-serif" lengthAdjust="spacing"><g class="title" data-source-line="2"><text x="75.59" y="23.923" fill="#000" font-size="15" textLength="332.82" font-weight="700">Diagrama de Casos de Uso — Alto Nivel</text><text x="70.639" y="41.384" fill="#000" font-size="15" textLength="342.722" font-weight="700">Sistema de Gestión de Resultados (SGR)</text></g><!--cluster Sistema de Gestión de Resultados (SGR)--><g class="cluster" data-qualified-name="Sistema de Gesti.n de Resultados .SGR." id="ent0009" data-source-line="13"><rect x="142" y="86.922" width="335" height="710" fill="none" style="stroke:#64748B;stroke-width:1;" rx="2.5" ry="2.5"/><text x="149.563" y="101.917" fill="#334155" font-size="14" textLength="319.874" font-weight="700">Sistema de Gestión de Resultados (SGR)</text></g><!--entity EP01--><g class="entity" data-qualified-name="Sistema de Gesti.n de Resultados .SGR..EP01" id="ent0010" data-source-line="14"><ellipse cx="308.793" cy="408.834" rx="84.293" ry="27.412" fill="#EFF6FF" style="stroke:#2563EB;stroke-width:0.5;"/><text x="290.15" y="396.705" fill="#1E3A5F" font-size="13" textLength="37.286">EP-01</text><text x="233.205" y="411.838" fill="#1E3A5F" font-size="13" textLength="151.176">Registrar y Administrar</text><text x="271.145" y="426.971" fill="#1E3A5F" font-size="13" textLength="75.296">Actividades</text></g><!--entity EP02--><g class="entity" data-qualified-name="Sistema de Gesti.n de Resultados .SGR..EP02" id="ent0011" data-source-line="15"><ellipse cx="308.915" cy="494.065" rx="77.915" ry="22.143" fill="#EFF6FF" style="stroke:#2563EB;stroke-width:0.5;"/><text x="290.272" y="487.157" fill="#1E3A5F" font-size="13" textLength="37.286">EP-02</text><text x="249.695" y="502.29" fill="#1E3A5F" font-size="13" textLength="118.441">Medir Desempeño</text></g><!--entity EP03--><g class="entity" data-qualified-name="Sistema de Gesti.n de Resultados .SGR..EP03" id="ent0012" data-source-line="16"><ellipse cx="309.204" cy="144.008" rx="89.204" ry="22.086" fill="#EFF6FF" style="stroke:#2563EB;stroke-width:0.5;"/><text x="290.561" y="137.006" fill="#1E3A5F" font-size="13" textLength="37.286">EP-03</text><text x="240.856" y="152.139" fill="#1E3A5F" font-size="13" textLength="136.697">Gestionar Evidencias</text></g><!--entity EP04--><g class="entity" data-qualified-name="Sistema de Gesti.n de Resultados .SGR..EP04" id="ent0013" data-source-line="17"><ellipse cx="309.075" cy="229.135" rx="66.575" ry="27.713" fill="#EFF6FF" style="stroke:#2563EB;stroke-width:0.5;"/><text x="290.432" y="217.141" fill="#1E3A5F" font-size="13" textLength="37.286">EP-04</text><text x="250.68" y="232.274" fill="#1E3A5F" font-size="13" textLength="116.791">Gestionar Agenda</text><text x="278.997" y="247.407" fill="#1E3A5F" font-size="13" textLength="60.157">Colectiva</text></g><!--entity EP05--><g class="entity" data-qualified-name="Sistema de Gesti.n de Resultados .SGR..EP05" id="ent0014" data-source-line="18"><ellipse cx="308.907" cy="319.092" rx="81.407" ry="27.17" fill="#EFF6FF" style="stroke:#2563EB;stroke-width:0.5;"/><text x="290.264" y="307.29" fill="#1E3A5F" font-size="13" textLength="37.286">EP-05</text><text x="235.271" y="322.422" fill="#1E3A5F" font-size="13" textLength="147.272">Monitorear y Controlar</text><text x="276.178" y="337.555" fill="#1E3A5F" font-size="13" textLength="65.457">la Gestión</text></g><!--entity EP06--><g class="entity" data-qualified-name="Sistema de Gesti.n de Resultados .SGR..EP06" id="ent0015" data-source-line="19"><ellipse cx="309.129" cy="666.077" rx="76.129" ry="22.155" fill="#EFF6FF" style="stroke:#2563EB;stroke-width:0.5;"/><text x="290.486" y="659.188" fill="#1E3A5F" font-size="13" textLength="37.286">EP-06</text><text x="251.356" y="674.32" fill="#1E3A5F" font-size="13" textLength="115.546">Generar Reportes</text></g><!--entity EP07--><g class="entity" data-qualified-name="Sistema de Gesti.n de Resultados .SGR..EP07" id="ent0016" data-source-line="20"><ellipse cx="308.965" cy="580.128" rx="60.465" ry="29.206" fill="#EFF6FF" style="stroke:#2563EB;stroke-width:0.5;"/><text x="290.322" y="566.972" fill="#1E3A5F" font-size="13" textLength="37.286">EP-07</text><text x="259.19" y="582.105" fill="#1E3A5F" font-size="13" textLength="99.55">Colaborar en la</text><text x="273.472" y="597.238" fill="#1E3A5F" font-size="13" textLength="70.986">Plataforma</text></g><!--entity EP08--><g class="entity" data-qualified-name="Sistema de Gesti.n de Resultados .SGR..EP08" id="ent0017" data-source-line="21"><ellipse cx="309.135" cy="751.782" rx="54.135" ry="28.36" fill="#EFF6FF" style="stroke:#2563EB;stroke-width:0.5;"/><text x="290.492" y="739.8" fill="#1E3A5F" font-size="13" textLength="37.286">EP-08</text><text x="263.365" y="754.933" fill="#1E3A5F" font-size="13" textLength="91.54">Administrar el</text><text x="282.954" y="770.066" fill="#1E3A5F" font-size="13" textLength="52.362">Sistema</text></g><!--entity FUN--><g class="entity" data-qualified-name="FUN" id="ent0001" data-source-line="4"><ellipse cx="51.892" cy="289.922" rx="8" ry="8" fill="#F8FAFC" style="stroke:#334155;stroke-width:0.5;"/><path d="M51.892,297.922 L51.892,324.922 M38.892,305.922 L64.892,305.922 M51.892,324.922 L38.892,339.922 M51.892,324.922 L64.892,339.922" style="stroke:#334155;stroke-width:0.5;" fill="none"/><text x="14" y="353.489" fill="#1E293B" font-size="13" textLength="75.785">Funcionario</text></g><!--entity SUP--><g class="entity" data-qualified-name="SUP" id="ent0002" data-source-line="5"><ellipse cx="52.231" cy="399.922" rx="8" ry="8" fill="#F8FAFC" style="stroke:#334155;stroke-width:0.5;"/><path d="M52.231,407.922 L52.231,434.922 M39.231,415.922 L65.231,415.922 M52.231,434.922 L39.231,449.922 M52.231,434.922 L65.231,449.922" style="stroke:#334155;stroke-width:0.5;" fill="none"/><text x="17.5" y="463.489" fill="#1E293B" font-size="13" textLength="69.462">Supervisor</text></g><!--entity COORD--><g class="entity" data-qualified-name="COORD" id="ent0003" data-source-line="6"><ellipse cx="51.974" cy="509.922" rx="8" ry="8" fill="#F8FAFC" style="stroke:#334155;stroke-width:0.5;"/><path d="M51.974,517.922 L51.974,544.922 M38.974,525.922 L64.974,525.922 M51.974,544.922 L38.974,559.922 M51.974,544.922 L64.974,559.922" style="stroke:#334155;stroke-width:0.5;" fill="none"/><text x="12" y="573.489" fill="#1E293B" font-size="13" textLength="79.949">Coordinador</text></g><!--entity VER--><g class="entity" data-qualified-name="VER" id="ent0004" data-source-line="7"><ellipse cx="51.85" cy="69.922" rx="8" ry="8" fill="#F8FAFC" style="stroke:#334155;stroke-width:0.5;"/><path d="M51.85,77.922 L51.85,104.922 M38.85,85.922 L64.85,85.922 M51.85,104.922 L38.85,119.922 M51.85,104.922 L64.85,119.922" style="stroke:#334155;stroke-width:0.5;" fill="none"/><text x="16.5" y="133.489" fill="#1E293B" font-size="13" textLength="70.7">Verificador</text></g><!--entity DEL--><g class="entity" data-qualified-name="DEL" id="ent0005" data-source-line="8"><ellipse cx="52.021" cy="179.922" rx="8" ry="8" fill="#F8FAFC" style="stroke:#334155;stroke-width:0.5;"/><path d="M52.021,187.922 L52.021,214.922 M39.021,195.922 L65.021,195.922 M52.021,214.922 L39.021,229.922 M52.021,214.922 L65.021,229.922" style="stroke:#334155;stroke-width:0.5;" fill="none"/><text x="21" y="243.489" fill="#1E293B" font-size="13" textLength="62.042">Delegado</text></g><!--entity ADM--><g class="entity" data-qualified-name="ADM" id="ent0006" data-source-line="9"><ellipse cx="52.001" cy="619.922" rx="8" ry="8" fill="#F8FAFC" style="stroke:#334155;stroke-width:0.5;"/><path d="M52.001,627.922 L52.001,654.922 M39.001,635.922 L65.001,635.922 M52.001,654.922 L39.001,669.922 M52.001,654.922 L65.001,669.922" style="stroke:#334155;stroke-width:0.5;" fill="none"/><text x="6" y="683.489" fill="#1E293B" font-size="13" textLength="92.003">Administrador</text></g><!--entity AUD--><g class="entity" data-qualified-name="AUD" id="ent0007" data-source-line="10"><ellipse cx="52.196" cy="729.922" rx="8" ry="8" fill="#F8FAFC" style="stroke:#334155;stroke-width:0.5;"/><path d="M52.196,737.922 L52.196,764.922 M39.196,745.922 L65.196,745.922 M52.196,764.922 L39.196,779.922 M52.196,764.922 L65.196,779.922" style="stroke:#334155;stroke-width:0.5;" fill="none"/><text x="28.5" y="793.489" fill="#1E293B" font-size="13" textLength="47.392">Auditor</text></g><!--entity USC--><g class="entity" data-qualified-name="USC" id="ent0008" data-source-line="11"><ellipse cx="51.893" cy="840.422" rx="8" ry="8" fill="#F8FAFC" style="stroke:#334155;stroke-width:0.5;"/><path d="M51.893,848.422 L51.893,875.422 M38.893,856.422 L64.893,856.422 M51.893,875.422 L38.893,890.422 M51.893,875.422 L64.893,890.422" style="stroke:#334155;stroke-width:0.5;" fill="none"/><text x="17" y="903.989" fill="#1E293B" font-size="13" textLength="69.786">Usuario de</text><text x="17" y="919.122" fill="#1E293B" font-size="13" textLength="56.958">Consulta</text></g><!--link FUN to EP01--><g class="link" data-entity-1="ent0001" data-entity-2="ent0010" id="lnk18" data-source-line="24" data-link-type="dependency"><path d="M90.01,341.442 C103.51,349.012 119.13,357.012 134,362.922 C167.11,376.072 200.367,385.47 232.477,393.14" style="stroke:#475569;stroke-width:1;" fill="none" id="FUN-to-EP01"/><polygon points="237.34,394.302,229.516,388.32,232.477,393.14,227.657,396.101,237.34,394.302" fill="#475569" style="stroke:#475569;stroke-width:1;stroke-linejoin:miter;stroke-miterlimit:10;"/></g><!--link SUP to EP01--><g class="link" data-entity-1="ent0002" data-entity-2="ent0010" id="lnk19" data-source-line="25" data-link-type="dependency"><path d="M86.6,426.282 C122.03,423.512 174.195,419.412 221.545,415.702" style="stroke:#475569;stroke-width:1;" fill="none" id="SUP-to-EP01"/><polygon points="226.53,415.312,217.245,412.027,221.545,415.702,217.87,420.003,226.53,415.312" fill="#475569" style="stroke:#475569;stroke-width:1;stroke-linejoin:miter;stroke-miterlimit:10;"/></g><!--link COORD to EP01--><g class="link" data-entity-1="ent0003" data-entity-2="ent0010" id="lnk20" data-source-line="26" data-link-type="dependency"><path d="M85.06,501.382 C102.5,481.782 122.75,460.532 134,453.922 C163.32,436.692 194.326,426.998 225.886,420.378" style="stroke:#475569;stroke-width:1;" fill="none" id="COORD-to-EP01"/><polygon points="230.78,419.352,221.151,417.285,225.886,420.378,222.793,425.114,230.78,419.352" fill="#475569" style="stroke:#475569;stroke-width:1;stroke-linejoin:miter;stroke-miterlimit:10;"/></g><!--link COORD to EP02--><g class="link" data-entity-1="ent0003" data-entity-2="ent0011" id="lnk21" data-source-line="28" data-link-type="dependency"><path d="M92.01,532.042 C131.91,524.992 189.706,514.801 237.296,506.401" style="stroke:#475569;stroke-width:1;" fill="none" id="COORD-to-EP02"/><polygon points="242.22,505.532,232.662,503.157,237.296,506.401,234.052,511.035,242.22,505.532" fill="#475569" style="stroke:#475569;stroke-width:1;stroke-linejoin:miter;stroke-miterlimit:10;"/></g><!--link FUN to EP02--><g class="link" data-entity-1="ent0001" data-entity-2="ent0011" id="lnk22" data-source-line="29" data-link-type="dependency"><path d="M86.06,356.722 C90.31,362.322 94.43,368.152 98,373.922 C118.52,407.072 103.85,429.192 134,453.922 C161.2,476.232 193.539,485.924 226.609,490.584" style="stroke:#475569;stroke-width:1;" fill="none" id="FUN-to-EP02"/><polygon points="231.56,491.282,223.206,486.065,226.609,490.584,222.09,493.987,231.56,491.282" fill="#475569" style="stroke:#475569;stroke-width:1;stroke-linejoin:miter;stroke-miterlimit:10;"/></g><!--link FUN to EP03--><g class="link" data-entity-1="ent0001" data-entity-2="ent0012" id="lnk23" data-source-line="31" data-link-type="dependency"><path d="M86.06,281.122 C90.31,275.522 94.43,269.692 98,263.922 C118.52,230.772 103.85,208.652 134,183.922 C158.45,163.872 186.104,154.31 216.474,149.02" style="stroke:#475569;stroke-width:1;" fill="none" id="FUN-to-EP03"/><polygon points="221.4,148.162,211.847,145.766,216.474,149.02,213.22,153.647,221.4,148.162" fill="#475569" style="stroke:#475569;stroke-width:1;stroke-linejoin:miter;stroke-miterlimit:10;"/></g><!--link VER to EP03--><g class="link" data-entity-1="ent0004" data-entity-2="ent0012" id="lnk24" data-source-line="32" data-link-type="dependency"><path d="M87.66,105.042 C125.58,111.732 182.516,121.784 231.056,130.344" style="stroke:#475569;stroke-width:1;" fill="none" id="VER-to-EP03"/><polygon points="235.98,131.212,227.811,125.71,231.056,130.344,226.422,133.588,235.98,131.212" fill="#475569" style="stroke:#475569;stroke-width:1;stroke-linejoin:miter;stroke-miterlimit:10;"/></g><!--link FUN to EP04--><g class="link" data-entity-1="ent0001" data-entity-2="ent0013" id="lnk25" data-source-line="34" data-link-type="dependency"><path d="M90.34,295.572 C103.75,287.902 119.21,279.832 134,273.922 C170.94,259.162 209.368,249.02 243.528,241.48" style="stroke:#475569;stroke-width:1;" fill="none" id="FUN-to-EP04"/><polygon points="248.41,240.402,238.759,238.436,243.528,241.48,240.484,246.248,248.41,240.402" fill="#475569" style="stroke:#475569;stroke-width:1;stroke-linejoin:miter;stroke-miterlimit:10;"/></g><!--link DEL to EP04--><g class="link" data-entity-1="ent0005" data-entity-2="ent0013" id="lnk26" data-source-line="35" data-link-type="dependency"><path d="M83,211.272 C122.23,214.352 187.035,219.431 238.515,223.471" style="stroke:#475569;stroke-width:1;" fill="none" id="DEL-to-EP04"/><polygon points="243.5,223.862,234.841,219.17,238.515,223.471,234.215,227.145,243.5,223.862" fill="#475569" style="stroke:#475569;stroke-width:1;stroke-linejoin:miter;stroke-miterlimit:10;"/></g><!--link FUN to EP05--><g class="link" data-entity-1="ent0001" data-entity-2="ent0014" id="lnk27" data-source-line="37" data-link-type="dependency"><path d="M90.08,318.922 C125.92,318.922 176.41,318.922 222.43,318.922" style="stroke:#475569;stroke-width:1;" fill="none" id="FUN-to-EP05"/><polygon points="227.43,318.922,218.43,314.922,222.43,318.922,218.43,322.922,227.43,318.922" fill="#475569" style="stroke:#475569;stroke-width:1;stroke-linejoin:miter;stroke-miterlimit:10;"/></g><!--link COORD to EP05--><g class="link" data-entity-1="ent0003" data-entity-2="ent0014" id="lnk28" data-source-line="38" data-link-type="dependency"><path d="M87,501.222 C91.06,495.652 94.87,489.802 98,483.922 C124.14,434.752 93.88,402.532 134,363.922 C159.07,339.802 190.377,328.97 223.297,323.51" style="stroke:#475569;stroke-width:1;" fill="none" id="COORD-to-EP05"/><polygon points="228.23,322.692,218.697,320.218,223.297,323.51,220.006,328.111,228.23,322.692" fill="#475569" style="stroke:#475569;stroke-width:1;stroke-linejoin:miter;stroke-miterlimit:10;"/></g><!--link DEL to EP05--><g class="link" data-entity-1="ent0005" data-entity-2="ent0014" id="lnk29" data-source-line="39" data-link-type="dependency"><path d="M83.16,238.232 C97.55,250.812 115.62,264.712 134,273.922 C165.52,289.722 198.232,299.289 230.392,306.219" style="stroke:#475569;stroke-width:1;" fill="none" id="DEL-to-EP05"/><polygon points="235.28,307.272,227.325,301.466,230.392,306.219,225.639,309.286,235.28,307.272" fill="#475569" style="stroke:#475569;stroke-width:1;stroke-linejoin:miter;stroke-miterlimit:10;"/></g><!--link COORD to EP06--><g class="link" data-entity-1="ent0003" data-entity-2="ent0015" id="lnk30" data-source-line="41" data-link-type="dependency"><path d="M84.11,576.532 C101.68,596.882 122.38,619.212 134,625.922 C165.01,643.822 198.518,652.892 231.378,658.352" style="stroke:#475569;stroke-width:1;" fill="none" id="COORD-to-EP06"/><polygon points="236.31,659.172,228.087,653.751,231.378,658.352,226.776,661.643,236.31,659.172" fill="#475569" style="stroke:#475569;stroke-width:1;stroke-linejoin:miter;stroke-miterlimit:10;"/></g><!--link FUN to EP07--><g class="link" data-entity-1="ent0001" data-entity-2="ent0016" id="lnk31" data-source-line="43" data-link-type="dependency"><path d="M87.38,356.432 C91.38,362.022 95.08,367.932 98,373.922 C129.79,439.032 83.83,480.642 134,532.922 C163.36,563.512 205.407,574.374 243.177,578.304" style="stroke:#475569;stroke-width:1;" fill="none" id="FUN-to-EP07"/><polygon points="248.15,578.822,239.612,573.912,243.177,578.304,238.784,581.869,248.15,578.822" fill="#475569" style="stroke:#475569;stroke-width:1;stroke-linejoin:miter;stroke-miterlimit:10;"/></g><!--link ADM to EP07--><g class="link" data-entity-1="ent0006" data-entity-2="ent0016" id="lnk32" data-source-line="44" data-link-type="dependency"><path d="M98.37,635.882 C109.97,632.592 122.44,629.092 134,625.922 C174.68,614.772 216.002,603.856 250.552,594.826" style="stroke:#475569;stroke-width:1;" fill="none" id="ADM-to-EP07"/><polygon points="255.39,593.562,245.671,591.968,250.552,594.826,247.694,599.708,255.39,593.562" fill="#475569" style="stroke:#475569;stroke-width:1;stroke-linejoin:miter;stroke-miterlimit:10;"/></g><!--link ADM to EP08--><g class="link" data-entity-1="ent0006" data-entity-2="ent0017" id="lnk33" data-source-line="46" data-link-type="dependency"><path d="M98.05,684.062 C109.34,691.732 121.75,699.242 134,704.922 C173.6,723.292 216.814,734.585 252.394,741.975" style="stroke:#475569;stroke-width:1;" fill="none" id="ADM-to-EP08"/><polygon points="257.29,742.992,249.292,737.245,252.394,741.975,247.665,745.078,257.29,742.992" fill="#475569" style="stroke:#475569;stroke-width:1;stroke-linejoin:miter;stroke-miterlimit:10;"/></g><!--link COORD to EP08--><g class="link" data-entity-1="ent0003" data-entity-2="ent0017" id="lnk34" data-source-line="47" data-link-type="dependency"><path d="M86.88,576.692 C90.96,582.242 94.81,588.072 98,593.922 C122.85,639.442 96.43,669.172 134,704.922 C166.3,735.652 211.584,746.25 249.794,750.03" style="stroke:#475569;stroke-width:1;" fill="none" id="COORD-to-EP08"/><polygon points="254.77,750.522,246.208,745.655,249.794,750.03,245.42,753.616,254.77,750.522" fill="#475569" style="stroke:#475569;stroke-width:1;stroke-linejoin:miter;stroke-miterlimit:10;"/></g><!--link USC to EP08--><g class="link" data-entity-1="ent0008" data-entity-2="ent0017" id="lnk35" data-source-line="48" data-link-type="dependency"><path d="M87.13,860.192 C134.22,837.112 214.44,797.783 264.15,773.413" style="stroke:#475569;stroke-width:1;" fill="none" id="USC-to-EP08"/><polygon points="268.64,771.212,258.798,771.582,264.15,773.413,262.32,778.765,268.64,771.212" fill="#475569" style="stroke:#475569;stroke-width:1;stroke-linejoin:miter;stroke-miterlimit:10;"/></g><!--link AUD to EP08--><g class="link" data-entity-1="ent0007" data-entity-2="ent0017" id="lnk36" data-source-line="49" data-link-type="dependency"><path d="M75.63,758.302 C115.61,757.202 194.732,755.029 250.032,753.509" style="stroke:#475569;stroke-width:1;" fill="none" id="AUD-to-EP08"/><polygon points="255.03,753.372,245.923,749.621,250.032,753.509,246.143,757.618,255.03,753.372" fill="#475569" style="stroke:#475569;stroke-width:1;stroke-linejoin:miter;stroke-miterlimit:10;"/></g><g class="legend" data-source-line="51"><rect x="123.443" y="941.622" width="348.557" height="91.484" fill="none" style="stroke:#000;stroke-width:1;" rx="7.5" ry="7.5"/><text x="128.443" y="959.617" fill="#000" font-size="14" textLength="338.557">Cada caso de uso representa, a grandes rasgos,</text><text x="128.443" y="975.914" fill="#000" font-size="14" textLength="255.862">una épica completa (EP-01 a EP-08).</text><text x="128.443" y="992.21" fill="#000" font-size="14" textLength="289.099">El detalle por Historia de Usuario, con las</text><text x="128.443" y="1008.507" fill="#000" font-size="14" textLength="302.183">relaciones «include»/«extend», se muestra</text><text x="128.443" y="1024.804" fill="#000" font-size="14" textLength="291.02">en los diagramas específicos por módulo.</text></g><?plantuml-src ZLJDRjD04BxxAKRXGgKMcZXEKgcAv3fsEV0J9OHJBbjxwgxOx4QxwvQ2a7W8Ne831yGZv4ru4cQTEFuH86uxCzyt_plcFPTRfja6RbZwFjUga5caXDBmSCSjUkPeDtSiKmzSvd3BX6bQ2eCfCmYVF82hZfSdSPACaiHPbCvG7xI3OEJ7LwHDbBG7NJ_smo0vw9Ry8qBVzputuh3K4kwFKP994YPHDuhl3_j1q8qokF2l_X55OsgPpCMXdgQ_qN0yd7IoRiLOsaVYtIYHjLnAPV_IdIHEBYA_6oSA9-7vi9LZl-Kmr5ez7C33SH2CBXh6jzmAh9c19_3MWbMWUNvd8UEkGgwaPnqGPfpbH6EG8KJCAECUAwFWrvUl40hYlURtADPooOt5FUuQZUMxdzAz5sWAOMat33nTNYzEF6y_frvIo9J2CCrL3vY1PFMwCYsBBUfxRfGkBSlLlB94YXh19RdRcw8tRnQpolWEDR_bwT7uBbvKfXaApCbGwcVnoqeVPXikAN5z98MpLqTZaN5RgLV7C2jJkAIfkBMCb2pBAp6hPUHvzNxq_hCZlNBsrI_fnVEpy_vQBZ0lyzBm27MMUYr3ciuzprY6femQpy_xNVvWBLyXJH9cQ72pnTqFLM47NQo_bcLsRXGGasUakR2ZRx-B7pRnOOuoOwuFmctDFQjemouje9IKTFt4iYRgdDLAk8e4E_QdeWTT-iX5bUZwiS2jqhQkVjJ5Zijys8roQ9GWAC6vO9RTAhqvPZZkqYRKsxhHqDZfYZAXN-RHdiBPsNJVTrhDMYYNiHRRyg197BJS-1vjQYqqJKEFbhKMcgQWxJze8eDEy56BEVPeoMkXAKtQl8b7ErqBz0bgWUw66_x-R50l8vOne6wwZq6DfNk2Mqth9oqx1GPqH2IjB6XcScLENVCbWzstBNrOIDLcAz0oU5fkFy7BWPmy8rWioA5bWduKpHrUq4YKvcn_XigVU4fyDsL3Q8s2kRD2aIulkKn5aU5q-lpo4ZzOodOwFGMQzwP0DsJ2k_LmD-rmvGoWsMAw-qvtXDGku6RtCok4UkQvOlSrUxy1?></g></svg>