<svg xmlns="http://www.w3.org/2000/svg" xmlns:xlink="http://www.w3.org/1999/xlink" version="1.1" data-diagram-type="DESCRIPTION" style="width:661px;height:542px;background:#FFFFFF;" width="661px" height="542px" viewBox="0 0 661 542" zoomAndPan="magnify" preserveAspectRatio="none" contentStyleType="text/css"><?plantuml 1.2026.8?><defs/><g font-family="sans-serif" lengthAdjust="spacing"><g class="title" data-source-line="2"><text x="10" y="23.923" fill="#000" font-size="15" textLength="634.871" font-weight="700">Casos de Uso Específicos — EP-08 Administración, seguridad y trazabilidad</text></g><!--cluster SGR — Módulo Administración y Seguridad--><g class="cluster" data-qualified-name="SGR . M.dulo Administraci.n y Seguridad" id="ent0005" data-source-line="9"><rect x="218.435" y="45.461" width="353" height="428" fill="none" style="stroke:#64748B;stroke-width:1;" rx="2.5" ry="2.5"/><text x="226.118" y="60.456" fill="#334155" font-size="14" textLength="337.634" font-weight="700">SGR — Módulo Administración y Seguridad</text></g><!--entity UC26--><g class="entity" data-qualified-name="SGR . M.dulo Administraci.n y Seguridad.UC26" id="ent0006" data-source-line="10"><ellipse cx="395.157" cy="187.505" rx="115.722" ry="25.544" fill="#EFF6FF" style="stroke:#2563EB;stroke-width:0.5;"/><text x="309.346" y="184.519" fill="#1E3A5F" font-size="13" textLength="171.622">Administrar Delegaciones,</text><text x="314.005" y="199.652" fill="#1E3A5F" font-size="13" textLength="162.303">Usuarios y Roles (HU-26)</text></g><!--entity UC27--><g class="entity" data-qualified-name="SGR . M.dulo Administraci.n y Seguridad.UC27" id="ent0007" data-source-line="11"><ellipse cx="394.847" cy="103.328" rx="81.411" ry="22.867" fill="#EFF6FF" style="stroke:#2563EB;stroke-width:0.5;"/><text x="356.948" y="97.568" fill="#1E3A5F" font-size="13" textLength="75.797">Administrar</text><text x="335.122" y="112.701" fill="#1E3A5F" font-size="13" textLength="119.45">Catálogos (HU-27)</text></g><!--entity UC28--><g class="entity" data-qualified-name="SGR . M.dulo Administraci.n y Seguridad.UC28" id="ent0008" data-source-line="12"><ellipse cx="395.097" cy="351.495" rx="76.162" ry="23.034" fill="#EFF6FF" style="stroke:#2563EB;stroke-width:0.5;"/><text x="357.198" y="345.991" fill="#1E3A5F" font-size="13" textLength="75.797">Administrar</text><text x="339.834" y="361.124" fill="#1E3A5F" font-size="13" textLength="110.525">Períodos (HU-28)</text></g><!--entity UC29--><g class="entity" data-qualified-name="SGR . M.dulo Administraci.n y Seguridad.UC29" id="ent0009" data-source-line="13"><ellipse cx="394.982" cy="433.213" rx="91.546" ry="23.252" fill="#EFF6FF" style="stroke:#2563EB;stroke-width:0.5;"/><text x="345.581" y="428.039" fill="#1E3A5F" font-size="13" textLength="98.801">Buscar y Filtrar</text><text x="328.817" y="443.171" fill="#1E3A5F" font-size="13" textLength="132.33">Información (HU-29)</text></g><!--entity UC30--><g class="entity" data-qualified-name="SGR . M.dulo Administraci.n y Seguridad.UC30" id="ent0010" data-source-line="14"><ellipse cx="394.917" cy="270.298" rx="73.981" ry="22.337" fill="#EFF6FF" style="stroke:#2563EB;stroke-width:0.5;"/><text x="371.214" y="263.704" fill="#1E3A5F" font-size="13" textLength="47.404">Auditar</text><text x="339.368" y="278.836" fill="#1E3A5F" font-size="13" textLength="111.097">Cambios (HU-30)</text></g><!--entity ADM--><g class="entity" data-qualified-name="ADM" id="ent0001" data-source-line="4"><ellipse cx="128.437" cy="116.461" rx="8" ry="8" fill="#F8FAFC" style="stroke:#334155;stroke-width:0.5;"/><path d="M128.437,124.461 L128.437,151.461 M115.437,132.461 L141.437,132.461 M128.437,151.461 L115.437,166.461 M128.437,151.461 L141.437,166.461" style="stroke:#334155;stroke-width:0.5;" fill="none"/><text x="82.435" y="180.028" fill="#1E293B" font-size="13" textLength="92.003">Administrador</text></g><!--entity COORD--><g class="entity" data-qualified-name="COORD" id="ent0002" data-source-line="5"><ellipse cx="128.41" cy="336.461" rx="8" ry="8" fill="#F8FAFC" style="stroke:#334155;stroke-width:0.5;"/><path d="M128.41,344.461 L128.41,371.461 M115.41,352.461 L141.41,352.461 M128.41,371.461 L115.41,386.461 M128.41,371.461 L141.41,386.461" style="stroke:#334155;stroke-width:0.5;" fill="none"/><text x="88.435" y="400.028" fill="#1E293B" font-size="13" textLength="79.949">Coordinador</text></g><!--entity USC--><g class="entity" data-qualified-name="USC" id="ent0003" data-source-line="6"><ellipse cx="128.328" cy="446.961" rx="8" ry="8" fill="#F8FAFC" style="stroke:#334155;stroke-width:0.5;"/><path d="M128.328,454.961 L128.328,481.961 M115.328,462.961 L141.328,462.961 M128.328,481.961 L115.328,496.961 M128.328,481.961 L141.328,496.961" style="stroke:#334155;stroke-width:0.5;" fill="none"/><text x="93.435" y="510.528" fill="#1E293B" font-size="13" textLength="69.786">Usuario de</text><text x="93.435" y="525.661" fill="#1E293B" font-size="13" textLength="56.958">Consulta</text></g><!--entity AUD--><g class="entity" data-qualified-name="AUD" id="ent0004" data-source-line="7"><ellipse cx="128.631" cy="226.461" rx="8" ry="8" fill="#F8FAFC" style="stroke:#334155;stroke-width:0.5;"/><path d="M128.631,234.461 L128.631,261.461 M115.631,242.461 L141.631,242.461 M128.631,261.461 L115.631,276.461 M128.631,261.461 L141.631,276.461" style="stroke:#334155;stroke-width:0.5;" fill="none"/><text x="104.935" y="290.028" fill="#1E293B" font-size="13" textLength="47.392">Auditor</text></g><!--link ADM to UC26--><g class="link" data-entity-1="ent0001" data-entity-2="ent0006" id="lnk11" data-source-line="17" data-link-type="dependency"><path d="M174.605,152.631 C209.125,158.111 252.977,165.076 295.767,171.876" style="stroke:#475569;stroke-width:1;" fill="none" id="ADM-to-UC26"/><polygon points="300.705,172.661,292.445,167.298,295.767,171.876,291.189,175.199,300.705,172.661" fill="#475569" style="stroke:#475569;stroke-width:1;stroke-linejoin:miter;stroke-miterlimit:10;"/></g><!--link ADM to UC27--><g class="link" data-entity-1="ent0001" data-entity-2="ent0007" id="lnk12" data-source-line="18" data-link-type="dependency"><path d="M174.605,138.291 C215.475,131.801 271.377,122.926 318.627,115.416" style="stroke:#475569;stroke-width:1;" fill="none" id="ADM-to-UC27"/><polygon points="323.565,114.631,314.049,112.093,318.627,115.416,315.305,119.994,323.565,114.631" fill="#475569" style="stroke:#475569;stroke-width:1;stroke-linejoin:miter;stroke-miterlimit:10;"/></g><!--link COORD to UC28--><g class="link" data-entity-1="ent0002" data-entity-2="ent0008" id="lnk13" data-source-line="19" data-link-type="dependency"><path d="M168.465,363.391 C208.195,361.291 265.782,358.245 314.942,355.645" style="stroke:#475569;stroke-width:1;" fill="none" id="COORD-to-UC28"/><polygon points="319.935,355.381,310.737,351.862,314.942,355.645,311.159,359.851,319.935,355.381" fill="#475569" style="stroke:#475569;stroke-width:1;stroke-linejoin:miter;stroke-miterlimit:10;"/></g><!--link USC to UC29--><g class="link" data-entity-1="ent0003" data-entity-2="ent0009" id="lnk14" data-source-line="20" data-link-type="dependency"><path d="M163.475,477.031 C203.025,469.551 264.522,457.919 315.922,448.209" style="stroke:#475569;stroke-width:1;" fill="none" id="USC-to-UC29"/><polygon points="320.835,447.281,311.249,445.021,315.922,448.209,312.734,452.882,320.835,447.281" fill="#475569" style="stroke:#475569;stroke-width:1;stroke-linejoin:miter;stroke-miterlimit:10;"/></g><!--link ADM to UC30--><g class="link" data-entity-1="ent0001" data-entity-2="ent0010" id="lnk15" data-source-line="21" data-link-type="dependency"><path d="M161.405,183.171 C178.815,202.821 199.065,224.071 210.435,230.461 C244.685,249.711 282.397,258.98 317.967,264.16" style="stroke:#475569;stroke-width:1;" fill="none" id="ADM-to-UC30"/><polygon points="322.915,264.881,314.586,259.626,317.967,264.16,313.433,267.542,322.915,264.881" fill="#475569" style="stroke:#475569;stroke-width:1;stroke-linejoin:miter;stroke-miterlimit:10;"/></g><!--link AUD to UC30--><g class="link" data-entity-1="ent0004" data-entity-2="ent0010" id="lnk16" data-source-line="22" data-link-type="dependency"><path d="M151.985,256.741 C189.215,258.851 260.073,262.868 316.983,266.098" style="stroke:#475569;stroke-width:1;" fill="none" id="AUD-to-UC30"/><polygon points="321.975,266.381,313.216,261.877,316.983,266.098,312.763,269.865,321.975,266.381" fill="#475569" style="stroke:#475569;stroke-width:1;stroke-linejoin:miter;stroke-miterlimit:10;"/></g><?plantuml-src VL9DZjem5Dxd54zqqqg318I4P5CfXBZjOZGZABlPcDW4QupVo7Q4PgfAFKGlq0FCQex0JUOaDP2449Kkty_ty_pPF0hrH3NTmehcZuN6Kh4K9MhOROJbdcdcPaCPxeGgO4sbQKzAmtDgEFpm0AOTbWyP8I4XXmbgndNL7GMXdqrTbw2oLM-O-Kb0gjv2l70O-jxFbWxDhTlxfmg9I4BIhehlZuT1q5KPnVxqFogQvvQgGbRtjFd2yMGSTLnVQ2piiyEjKB8BIeNsokkGZCIftzL9aoWPZ2yy3Yy84wrnLosF9q4GngtXTs4bFoC3J_Ar1OkWHR6nmCJXGe7AiuT5IAb10up3qY1avedd-zUro5tl_TTloExxWmWIjXLA6AjfBlPlwWOCBqej66Nm3AxxGbT27ahFEuNKEoCOwXvG0ydijXwcwAuLgXcbTtVpMJrScf9gWSxHWqfHcL9QUjnQBjA6lMJ2rhpBcUUTG-ijlioFpc_tRwoKsFNk32zgyxrZAFNtRNdMCEEI5mw1YfkR1rMPCWuzHyaDVFowx8_2JoTZwIYymkDEe7R_HsA15MRIO2PNCVTSxr-HrP2eWKHjoBGqkNFw34J84-wRMgFULdSUeN43ZI_K3kztShTTYKh77zJB_i3zDiy51lt-vzDvhMBY7VEgoyXpmTH5t5fqB2wRS_4N?></g></svg>