<svg xmlns="http://www.w3.org/2000/svg" xmlns:xlink="http://www.w3.org/1999/xlink" version="1.1" data-diagram-type="DESCRIPTION" style="width:720px;height:507px;background:#FFFFFF;" width="720px" height="507px" viewBox="0 0 720 507" zoomAndPan="magnify" preserveAspectRatio="none" contentStyleType="text/css"><?plantuml 1.2026.8?><defs/><g font-family="sans-serif" lengthAdjust="spacing"><g class="title" data-source-line="2"><text x="72.741" y="23.923" fill="#000" font-size="15" textLength="567.517" font-weight="700">Casos de Uso Específicos — EP-04 Agenda colectiva y compromisos</text></g><!--cluster SGR — Módulo Agenda Colectiva--><g class="cluster" data-qualified-name="SGR . M.dulo Agenda Colectiva" id="ent0003" data-source-line="7"><rect x="144" y="244.461" width="562" height="249" fill="none" style="stroke:#64748B;stroke-width:1;" rx="2.5" ry="2.5"/><text x="296.929" y="259.456" fill="#334155" font-size="14" textLength="256.143" font-weight="700">SGR — Módulo Agenda Colectiva</text></g><!--entity UC12--><g class="entity" data-qualified-name="SGR . M.dulo Agenda Colectiva.UC12" id="ent0004" data-source-line="8"><ellipse cx="259.278" cy="368.321" rx="93.278" ry="23.86" fill="#EFF6FF" style="stroke:#2563EB;stroke-width:0.5;"/><text x="200.882" y="364.045" fill="#1E3A5F" font-size="13" textLength="116.791">Gestionar Agenda</text><text x="193.786" y="379.178" fill="#1E3A5F" font-size="13" textLength="130.984">Compartida (HU-12)</text></g><!--entity UC13--><g class="entity" data-qualified-name="SGR . M.dulo Agenda Colectiva.UC13" id="ent0005" data-source-line="9"><ellipse cx="259.285" cy="452.225" rx="99.285" ry="24.264" fill="#EFF6FF" style="stroke:#2563EB;stroke-width:0.5;"/><text x="192.549" y="448.53" fill="#1E3A5F" font-size="13" textLength="133.472">Actualizar Estado de</text><text x="190.762" y="463.663" fill="#1E3A5F" font-size="13" textLength="137.046">Compromiso (HU-13)</text></g><!--entity UC14--><g class="entity" data-qualified-name="SGR . M.dulo Agenda Colectiva.UC14" id="ent0006" data-source-line="10"><ellipse cx="594.561" cy="302.44" rx="95.561" ry="22.479" fill="#EFF6FF" style="stroke:#2563EB;stroke-width:0.5;"/><text x="559.198" y="296.071" fill="#1E3A5F" font-size="13" textLength="70.726">Monitorear</text><text x="522.651" y="311.204" fill="#1E3A5F" font-size="13" textLength="143.819">Compromisos (HU-14)</text></g><!--entity UCA1--><g class="entity" data-qualified-name="SGR . M.dulo Agenda Colectiva.UCA1" id="ent0007" data-source-line="11"><ellipse cx="259.62" cy="294.685" rx="64.12" ry="15.224" fill="#EFF6FF" style="stroke:#2563EB;stroke-width:0.5;"/><text x="211.616" y="298.751" fill="#1E3A5F" font-size="13" textLength="96.008">Generar Alerta</text></g><!--entity FUN--><g class="entity" data-qualified-name="FUN" id="ent0001" data-source-line="4"><ellipse cx="43.892" cy="382.461" rx="8" ry="8" fill="#F8FAFC" style="stroke:#334155;stroke-width:0.5;"/><path d="M43.892,390.461 L43.892,417.461 M30.892,398.461 L56.892,398.461 M43.892,417.461 L30.892,432.461 M43.892,417.461 L56.892,432.461" style="stroke:#334155;stroke-width:0.5;" fill="none"/><text x="6" y="446.028" fill="#1E293B" font-size="13" textLength="75.785">Funcionario</text></g><!--entity DEL--><g class="entity" data-qualified-name="DEL" id="ent0002" data-source-line="5"><ellipse cx="259.521" cy="162.461" rx="8" ry="8" fill="#F8FAFC" style="stroke:#334155;stroke-width:0.5;"/><path d="M259.521,170.461 L259.521,197.461 M246.521,178.461 L272.521,178.461 M259.521,197.461 L246.521,212.461 M259.521,197.461 L272.521,212.461" style="stroke:#334155;stroke-width:0.5;" fill="none"/><text x="228.5" y="226.028" fill="#1E293B" font-size="13" textLength="62.042">Delegado</text></g><g class="entity" data-qualified-name="GMN12" id="ent0013" data-source-line="21"><path d="M143,44.461 L143,118.484 L375.514,118.484 L375.514,54.461 L365.514,44.461 L143,44.461" style="stroke:#CA8A04;stroke-width:0.5;" fill="#FEF9C3"/><path d="M365.514,44.461 L365.514,54.461 L375.514,54.461 L365.514,44.461" style="stroke:#CA8A04;stroke-width:1;" fill="#FEF9C3"/><text x="149" y="59.671" fill="#000" font-size="11" textLength="191.453">Condición: el compromiso próximo</text><text x="149" y="72.476" fill="#000" font-size="11" textLength="149.198">a vencer alcanza el umbral</text><text x="149" y="85.281" fill="#000" font-size="11" textLength="171.977">configurado (HU-14, criterio 2).</text><text x="149" y="98.085" fill="#000" font-size="11" textLength="211.514">Comportamiento opcional, no siempre</text><text x="149" y="110.89" fill="#000" font-size="11" textLength="138.107">se dispara al monitorear.</text></g><!--link FUN to UC12--><g class="link" data-entity-1="ent0001" data-entity-2="ent0004" id="lnk8" data-source-line="14" data-link-type="dependency"><path d="M82.19,403.971 C110.62,398.241 145.819,391.159 180.589,384.149" style="stroke:#475569;stroke-width:1;" fill="none" id="FUN-to-UC12"/><polygon points="185.49,383.161,175.877,381.019,180.589,384.149,177.458,388.861,185.49,383.161" fill="#475569" style="stroke:#475569;stroke-width:1;stroke-linejoin:miter;stroke-miterlimit:10;"/></g><!--link FUN to UC13--><g class="link" data-entity-1="ent0001" data-entity-2="ent0005" id="lnk9" data-source-line="15" data-link-type="dependency"><path d="M82.19,418.601 C109.31,423.811 142.13,430.118 175.73,436.568" style="stroke:#475569;stroke-width:1;" fill="none" id="FUN-to-UC13"/><polygon points="180.64,437.511,172.555,431.886,175.73,436.568,171.047,439.743,180.64,437.511" fill="#475569" style="stroke:#475569;stroke-width:1;stroke-linejoin:miter;stroke-miterlimit:10;"/></g><!--link DEL to UC14--><g class="link" data-entity-1="ent0002" data-entity-2="ent0006" id="lnk10" data-source-line="16" data-link-type="dependency"><path d="M290.64,201.511 C346.67,220.181 462.887,258.919 533.817,282.569" style="stroke:#475569;stroke-width:1;" fill="none" id="DEL-to-UC14"/><polygon points="538.56,284.151,531.287,277.51,533.817,282.569,528.757,285.099,538.56,284.151" fill="#475569" style="stroke:#475569;stroke-width:1;stroke-linejoin:miter;stroke-miterlimit:10;"/></g><!--link UCA1 to UC14--><g class="link" data-entity-1="ent0007" data-entity-2="ent0006" id="lnk11" data-source-line="18" data-link-type="dependency"><path d="M323.53,295.971 C373.12,297.171 438.001,298.72 494.231,300.08" style="stroke:#475569;stroke-width:1;stroke-dasharray:7,7;" fill="none" id="UCA1-to-UC14"/><polygon points="499.23,300.201,490.329,295.984,494.231,300.08,490.136,303.982,499.23,300.201" fill="#475569" style="stroke:#475569;stroke-width:1;stroke-linejoin:miter;stroke-miterlimit:10;"/><text x="407" y="294.528" fill="#000" font-size="13" textLength="61.185">«extend»</text></g><!--link UCA1 to GMN12--><g class="link" data-entity-1="ent0007" data-entity-2="ent0013" id="lnk14" data-source-line="21" data-link-type="association"><path d="M203.11,287.131 C168.52,279.251 127.44,262.881 109,228.961 C93.08,199.671 93.08,183.251 109,153.961 C116.96,139.311 128.94,127.581 142.73,118.201" style="stroke:#475569;stroke-width:1;stroke-dasharray:7,7;" fill="none" id="UCA1-GMN12"/></g><?plantuml-src VLHBRjim4Dtp50Dtqm2n4LkIumH104KHqqLJ57MzwuQcQ8K8HHea5ISE2lGGlKPNFe9lqfDqzB4Z6srtvinxysRUZEmUfLuoomgOC_wOMrFgB37AM5WzI2-8s-VT0ylCIkeS5aovRgPqWZCdu9K0t1nLUPTIEgQqoXYR2Tj6Hz4uI6ymIetsRMoO1d54szXKhWKC0_AzeyEuHznVLUY4nZGvLWc2S1X5nogZY-3cFofMSCzqhjfvklN6uNauEUhwG6FgNv0tDoexAAcD_uSxDAKNIN2iayIJ-2myw75uK32srgnQS7WUHUEBJlAhz4gyCIEYnCA3Ds1b_k0XazM4qcZYAo0ap1a7cO2PCv2wfU3RNml9CVRxnqz8F_VFGeXpeJC6tAYA-iJW1NyNIsiAYMH2citqQAav5cPMcXum1tJsQPUw5KhaU41r_3RzICYRpxtftPTQx7wxoKfbTdB9JgvNcxSxizwTSBwMQO7VT8BDCEibajv_cFM7evDQPvOCHrrYp7t9b5mZCtKUky6n6t8pIKCEzkIWIxutMk8eWjaknJMSSCy93plLmbPzAc4zQo5njKk2ta2_Vztqs7a41DtPFK92AZmC1iqJBk7gIZnxdFhwcf3whkR6UrE0MJIb0MtJcUHokz6N85HdKR2qsyspB0o263m9pOK5fZZJQrOXos9kcS8aDteXyz9M3ZNZdGAt-7U0YuNHoQ0MAPO6Pogaq7XQPbalNftYhOEJ0YK5ej23JBhgB547Yhs30u8Jr9y5-GC0?></g></svg>