<svg xmlns="http://www.w3.org/2000/svg" xmlns:xlink="http://www.w3.org/1999/xlink" version="1.1" data-diagram-type="CLASS" style="width:694px;height:407px;background:#FFFFFF;" width="694px" height="407px" viewBox="0 0 694 407" zoomAndPan="magnify" preserveAspectRatio="none" contentStyleType="text/css"><?plantuml 1.2026.8?><defs/><g font-family="sans-serif" lengthAdjust="spacing"><g class="title" data-source-line="1"><text x="107.074" y="23.923" fill="#000" font-size="15" textLength="473.606" font-weight="700">Patrón Adapter — Autenticación Institucional (RNF-004)</text></g><!--class IAutenticacion--><g class="entity" data-qualified-name="IAutenticacion" id="ent0001" data-source-line="3"><rect x="201.5" y="45.461" width="319.256" height="60.805" fill="#EFF6FF" style="stroke:#2563EB;stroke-width:0.5;" rx="2.5" ry="2.5"/><ellipse cx="310.34" cy="61.461" rx="11" ry="11" fill="#B4A7E5" style="stroke:#181818;stroke-width:1;"/><path d="M306.262,57.227 L306.262,55.07 L313.653,55.07 L313.653,57.227 L311.184,57.227 L311.184,65.305 L313.653,65.305 L313.653,67.461 L306.262,67.461 L306.262,65.305 L308.731,65.305 L308.731,57.227 L306.262,57.227 Z " fill="#000"/><text x="330.84" y="65.961" fill="#334155" font-size="13" textLength="93.076" font-style="italic">IAutenticacion</text><line x1="202.5" y1="77.461" x2="519.756" y2="77.461" style="stroke:#2563EB;stroke-width:0.5;"/><line x1="202.5" y1="85.461" x2="519.756" y2="85.461" style="stroke:#2563EB;stroke-width:0.5;"/><g data-visibility-modifier="PUBLIC_METHOD"><ellipse cx="212.5" cy="97.363" rx="3" ry="3" fill="#84BE84" style="stroke:#038048;stroke-width:1;"/></g><text x="221.5" y="99.671" fill="#334155" font-size="11" textLength="293.256">autenticar(usuario: String, clave: String): Funcionario</text></g><!--class AutenticacionAdapter--><g class="entity" data-qualified-name="AutenticacionAdapter" id="ent0002" data-source-line="7"><rect x="201.5" y="167.461" width="319.256" height="73.609" fill="#EFF6FF" style="stroke:#2563EB;stroke-width:0.5;" rx="2.5" ry="2.5"/><ellipse cx="286.356" cy="183.461" rx="11" ry="11" fill="#ADD1B2" style="stroke:#181818;stroke-width:1;"/><path d="M289.324,189.102 Q288.746,189.398 288.106,189.539 Q287.465,189.695 286.762,189.695 Q284.262,189.695 282.934,188.055 Q281.621,186.398 281.621,183.273 Q281.621,180.148 282.934,178.492 Q284.262,176.836 286.762,176.836 Q287.465,176.836 288.106,176.992 Q288.762,177.148 289.324,177.445 L289.324,180.164 Q288.699,179.586 288.106,179.32 Q287.512,179.039 286.887,179.039 Q285.543,179.039 284.856,180.117 Q284.168,181.18 284.168,183.273 Q284.168,185.367 284.856,186.445 Q285.543,187.508 286.887,187.508 Q287.512,187.508 288.106,187.242 Q288.699,186.961 289.324,186.383 L289.324,189.102 Z " fill="#000"/><text x="306.856" y="187.961" fill="#334155" font-size="13" textLength="141.045">AutenticacionAdapter</text><line x1="202.5" y1="199.461" x2="519.756" y2="199.461" style="stroke:#2563EB;stroke-width:0.5;"/><g data-visibility-modifier="PRIVATE_FIELD"><rect x="209.5" y="208.363" width="6" height="6" fill="none" style="stroke:#C82930;stroke-width:1;"/></g><text x="221.5" y="213.671" fill="#334155" font-size="11" textLength="213.195">directorio: DirectorioInstitucionalClient</text><line x1="202.5" y1="220.266" x2="519.756" y2="220.266" style="stroke:#2563EB;stroke-width:0.5;"/><g data-visibility-modifier="PUBLIC_METHOD"><ellipse cx="212.5" cy="232.168" rx="3" ry="3" fill="#84BE84" style="stroke:#038048;stroke-width:1;"/></g><text x="221.5" y="234.476" fill="#334155" font-size="11" textLength="293.256">autenticar(usuario: String, clave: String): Funcionario</text></g><!--class DirectorioInstitucionalClient--><g class="entity" data-qualified-name="DirectorioInstitucionalClient" id="ent0003" data-source-line="12"><rect x="7" y="318.461" width="353.954" height="73.609" fill="#EFF6FF" style="stroke:#2563EB;stroke-width:0.5;" rx="2.5" ry="2.5"/><ellipse cx="89.162" cy="334.461" rx="11" ry="11" fill="#ADD1B2" style="stroke:#181818;stroke-width:1;"/><path d="M92.13,340.102 Q91.552,340.398 90.912,340.539 Q90.271,340.695 89.568,340.695 Q87.068,340.695 85.74,339.055 Q84.427,337.398 84.427,334.273 Q84.427,331.148 85.74,329.492 Q87.068,327.836 89.568,327.836 Q90.271,327.836 90.912,327.992 Q91.568,328.148 92.13,328.445 L92.13,331.164 Q91.505,330.586 90.912,330.32 Q90.318,330.039 89.693,330.039 Q88.349,330.039 87.662,331.117 Q86.974,332.18 86.974,334.273 Q86.974,336.367 87.662,337.445 Q88.349,338.508 89.693,338.508 Q90.318,338.508 90.912,338.242 Q91.505,337.961 92.13,337.383 L92.13,340.102 Z " fill="#000"/><text x="109.662" y="338.961" fill="#334155" font-size="13" textLength="181.13">DirectorioInstitucionalClient</text><line x1="8" y1="350.461" x2="359.954" y2="350.461" style="stroke:#2563EB;stroke-width:0.5;"/><line x1="8" y1="358.461" x2="359.954" y2="358.461" style="stroke:#2563EB;stroke-width:0.5;"/><g data-visibility-modifier="PUBLIC_METHOD"><ellipse cx="18" cy="370.363" rx="3" ry="3" fill="#84BE84" style="stroke:#038048;stroke-width:1;"/></g><text x="27" y="372.671" fill="#334155" font-size="11" textLength="327.954">validarCredencialLDAP(dn: String, pwd: String): LDAPResult</text><g data-visibility-modifier="PUBLIC_METHOD"><ellipse cx="18" cy="383.168" rx="3" ry="3" fill="#84BE84" style="stroke:#038048;stroke-width:1;"/></g><text x="27" y="385.476" fill="#334155" font-size="11" textLength="208.887">buscarPersona(dn: String): LDAPEntry</text></g><g class="entity" data-qualified-name="GMN6" id="ent0007" data-source-line="21"><path d="M396.5,324.961 L396.5,386.18 A0,0 0 0 0 396.5,386.18 L679.754,386.18 A0,0 0 0 0 679.754,386.18 L679.754,334.961 L669.754,324.961 L506.69,324.961 L403.85,241.531 L498.69,324.961 L396.5,324.961 A0,0 0 0 0 396.5,324.961" style="stroke:#CA8A04;stroke-width:0.5;" fill="#FEF9C3"/><path d="M669.754,324.961 L669.754,334.961 L679.754,334.961 L669.754,324.961" style="stroke:#CA8A04;stroke-width:0.5;" fill="#FEF9C3"/><text x="402.5" y="340.171" fill="#000" font-size="11" textLength="255.003">Traduce la interfaz incompatible del directorio</text><text x="402.5" y="352.976" fill="#000" font-size="11" textLength="262.254">institucional (LDAP/AD) hacia la interfaz interna</text><text x="402.5" y="365.781" fill="#000" font-size="11" textLength="238.912">que SGR espera (RNF-004), sin modificar el</text><text x="402.5" y="378.585" fill="#000" font-size="11" textLength="211.814">cliente externo ni el resto del sistema.</text></g><!--reverse link IAutenticacion to AutenticacionAdapter--><g class="link" data-entity-1="ent0001" data-entity-2="ent0002" id="lnk4" data-source-line="17" data-link-type="extension"><path d="M361,124.621 C361,142.731 361,148.021 361,167.221" style="stroke:#475569;stroke-width:1;stroke-dasharray:7,7;" fill="none" id="IAutenticacion-backto-AutenticacionAdapter" codeLine="17"/><polygon points="361,106.621,355,124.621,367,124.621,361,106.621" fill="none" style="stroke:#475569;stroke-width:1;stroke-linejoin:miter;stroke-miterlimit:10;"/></g><!--link AutenticacionAdapter to DirectorioInstitucionalClient--><g class="link" data-entity-1="ent0002" data-entity-2="ent0003" id="lnk5" data-source-line="18" data-link-type="dependency"><path d="M318.15,241.531 C290.53,264.781 258.555,291.7 230.895,314.99" style="stroke:#475569;stroke-width:1;" fill="none" id="AutenticacionAdapter-to-DirectorioInstitucionalClient" codeLine="18"/><polygon points="227.07,318.211,236.531,315.474,230.895,314.99,231.378,309.354,227.07,318.211" fill="#475569" style="stroke:#475569;stroke-width:1;stroke-linejoin:miter;stroke-miterlimit:10;"/><text x="279" y="284.528" fill="#000" font-size="13" textLength="45.5">adapta</text></g><?plantuml-src hLHTZjem47xFAKRg2wWB1PAmiAegXO2hbQeAmLvW4XkmrjZKTfRkjfLwYDwaH-XDUf8wsR0a4T2NVJFpy_tC337tNEvGunOIJE_NMcMInaee3ViDjympBtcpGQhsNAvXXS9KCvbXAHe6tpo0IGFbpOoG8I5vHcdAT1aTX4D_Dd5HegGjO_sP7uMaZ2tv4uE-x_sey61gNTr95Z8Y4OcRBBuVzCEmoJ8O-vCBB9gb5kLQb7wgUCFWEXWrLDSublRHzILAq1gaLFRCTCYCZ6E_oHD7ewWNr3JsQu2fG6DURTwHjPedcMMdRDMI1otdfyUbPNg5wJc_FJ8bGLDTVnZvGTHG5uJ-O7g1AT9QxSlYu3eCX-DAyevRKL4SUZOFm1oj_lDRGaHnvtJ2tv-_87BUfEKffZnFtKhZQhEKAua2MelFfDFh1MtFEpgxhRGeMHXzYuUGRcKcGytL3IpTvEJwAj_M0plyRDy0oMG1xugS8-zvcJNCWxuSkaDvVfAgW9o-l6iwOy5TywlekCZmxFK11QUeOyqeSmWeFasZUOlA8zDkJoiyUNh1J2OAXKbcdBevqyRXLhhAmfcq-Z6NqvZo--_TxiaXUISdr-by-8-L6y2y5Zsl-7icobgr1RKwJG9mfv5cRli23qV-v1wfskxGyiGT5sK2Zhjo7Rn-IhcxTz6q3Hk7Z0qSzv3eUhva39OV5y3CZcaytjyL62vXgoXVvSi59bnnMZXXmBxcxGeaTt7t0JDM5MeCDvPjiUinIOkFaFSF?></g></svg>